<?xml version="1.0" encoding="UTF-8"?>
<svg id="Layer_2" data-name="Layer 2" xmlns="http://www.w3.org/2000/svg" viewBox="0 0 1057.61 325.65">
  <defs>
    <style>
      .cls-1 {
        fill: #f9f298;
      }

      .cls-1, .cls-2, .cls-3, .cls-4, .cls-5, .cls-6, .cls-7 {
        stroke-width: 0px;
      }

      .cls-2 {
        isolation: isolate;
        opacity: .63;
      }

      .cls-2, .cls-3 {
        fill: #79a8e2;
      }

      .cls-4 {
        fill: #1a62d6;
      }

      .cls-5 {
        fill: #0554c6;
      }

      .cls-6 {
        fill: #f2eb68;
      }

      .cls-7 {
        fill: #1baa5c;
      }
    </style>
  </defs>
  <g id="Layer_1-2" data-name="Layer 1">
    <g>
      <path class="cls-4" d="m186.01,17.29L57.41,229.25l-.05-.03C.34,194.45-17.11,118.85,18.39,60.34,53.9,1.81,128.95-17.46,186.01,17.29ZM57.4,229.15l40.22-66.28c-3.61-2.19-7.45-3.69-11.37-4.54-2.18-.47-4.37-.74-6.56-.82-4.64-.16-9.27.55-13.67,2.05-8.32,2.85-15.79,8.59-20.76,16.79-4.98,8.2-6.63,17.48-5.32,26.21.15.97.33,1.94.55,2.89.16.71.34,1.42.55,2.12.27.94.58,1.87.91,2.78.34.91.73,1.81,1.13,2.7.1.22.21.45.31.66.97,1.98,2.1,3.87,3.41,5.66.29.4.58.79.9,1.18.16.2.31.39.47.58,2.39,2.91,5.26,5.48,8.58,7.61.22.14.44.27.67.41h0Z"/>
      <path class="cls-7" d="m137.99,96.44c57.02,34.77,74.46,110.36,38.96,168.88-35.51,58.53-110.56,77.8-167.62,43.04L137.94,96.41l.05.03h0Zm-28.91,71.02c2.18.47,4.37.74,6.56.82,13.42.45,26.83-6.32,34.43-18.85,5.53-9.12,6.95-19.56,4.78-29.09-.16-.71-.34-1.42-.55-2.12-.27-.94-.58-1.86-.91-2.78-.17-.45-.35-.9-.53-1.35-1.41-3.38-3.31-6.56-5.68-9.41-2.41-2.91-5.29-5.5-8.62-7.63-.23-.14-.44-.28-.68-.42l-40.21,66.27c3.63,2.2,7.48,3.71,11.41,4.57h-.02Z"/>
      <path class="cls-2" d="m137.87,96.63l-40.21,66.27c3.62,2.2,7.48,3.71,11.41,4.57,15.45,3.34,32.15-3.44,41-18.03,8.85-14.58,7.17-32.57-2.9-44.76-2.56-3.11-5.68-5.84-9.3-8.04h0Z"/>
      <path class="cls-3" d="m33.04,123.53c-22.06,36.36-11.44,83.27,23.69,105.2-3.31-2.12-6.19-4.7-8.58-7.61-.16-.19-.31-.38-.47-.58-.3-.38-.6-.78-.9-1.18-1.3-1.78-2.44-3.68-3.41-5.66-.1-.22-.21-.45-.31-.66-.41-.88-.79-1.78-1.13-2.7-.34-.91-.65-1.84-.91-2.78-.2-.7-.38-1.41-.55-2.12-.23-.95-.41-1.91-.55-2.89-1.32-8.72.33-18,5.32-26.21,4.97-8.2,12.43-13.93,20.78-16.79,4.39-1.51,9.03-2.21,13.67-2.05,2.19.08,4.4.35,6.56.82,3.92.85,7.76,2.34,11.37,4.54l.05.03,40.21-66.27h0l-.04-.03c-35.68-21.71-82.59-9.65-104.79,26.95Z"/>
      <path class="cls-1" d="m45.25,176.36c-4.98,8.2-6.63,17.48-5.32,26.21.15.97.33,1.94.55,2.89.16.71.34,1.42.55,2.12.27.94.58,1.87.91,2.78.34.91.72,1.81,1.13,2.7.1.22.21.45.31.66.97,1.98,2.1,3.87,3.41,5.66.29.4.58.79.9,1.18.16.2.31.39.47.58,2.39,2.91,5.26,5.48,8.58,7.61.22.14.44.27.67.41l40.22-66.28c-3.61-2.19-7.44-3.69-11.37-4.54-2.18-.47-4.37-.74-6.56-.82-4.64-.16-9.27.55-13.67,2.05-8.32,2.85-15.79,8.59-20.76,16.79h0Z"/>
      <path class="cls-6" d="m97.62,162.87l-40.22,66.28.05.03c35.69,21.74,82.63,9.69,104.84-26.92,22.07-36.37,11.42-83.29-23.73-105.22,3.34,2.13,6.21,4.72,8.62,7.63,2.37,2.86,4.26,6.04,5.68,9.41.19.45.37.9.53,1.35.34.91.65,1.84.91,2.78.2.7.39,1.41.55,2.12,2.18,9.53.76,19.97-4.77,29.1-7.6,12.53-21.02,19.32-34.44,18.84-2.19-.08-4.4-.35-6.56-.82-3.94-.85-7.79-2.36-11.41-4.57l-.05-.03.02.02Z"/>
      <path class="cls-5" d="m282.86,194.24c.92,10.09,8.47,19.03,22.65,19.03,10.99,0,16.71-5.96,16.71-12.84,0-5.97-4.12-10.54-13.04-12.39l-16.48-3.67c-19.68-4.36-29.98-17.2-29.98-32.56,0-19.49,17.85-36,40.97-36,31.13,0,41.2,20.18,43.02,31.19l-22.43,6.42c-.91-6.42-5.72-16.74-20.6-16.74-9.39,0-16.02,5.97-16.02,12.84,0,5.96,4.35,10.32,11.22,11.69l16.93,3.44c21.06,4.58,32.04,17.43,32.04,33.94s-13.73,35.77-42.11,35.77c-32.27,0-44.63-21.1-46-33.71l23.11-6.42h0Z"/>
      <path class="cls-5" d="m391.34,174.98c0,22.47,14.41,35.09,31.13,35.09s25.4-12.15,27.92-20.64l23.34,8.48c-5.26,17.43-21.97,36.46-51.26,36.46-32.73,0-57.67-25.46-57.67-59.39s24.95-59.17,56.99-59.17c29.98,0,46.46,18.8,51.04,36.69l-23.81,8.72c-2.52-9.87-10.07-20.87-27-20.87s-30.67,12.15-30.67,34.63h0Z"/>
      <path class="cls-5" d="m523.4,166.95l28.61-4.36c6.41-.92,8.24-4.13,8.24-8.03,0-9.4-6.41-16.97-21.06-16.97s-21.74,8.94-22.89,20.18l-24.26-5.5c2.06-19.26,19.45-36.46,46.92-36.46,34.32,0,47.37,19.5,47.37,41.73v55.5c0,10.09,1.15,16.74,1.37,17.89h-24.72c-.23-.69-1.15-5.27-1.15-14.22-5.27,8.48-16.25,17.66-34.33,17.66-23.35,0-37.76-16.05-37.76-33.71,0-19.95,14.65-30.95,33.65-33.71Zm36.85,17.66v-5.05l-29.06,4.36c-8.24,1.37-14.88,5.97-14.88,15.14,0,7.57,5.72,14.45,16.25,14.45,14.87,0,27.69-7.11,27.69-28.89h0Z"/>
      <path class="cls-5" d="m644.94,230.93h-26.55v-111.68h25.86v14.9c7.32-12.84,20.61-18.11,32.96-18.11,27.24,0,40.28,19.72,40.28,44.26v70.63h-26.54v-66.04c0-13.75-6.18-24.77-22.89-24.77-15.11,0-23.12,11.69-23.12,26.37v64.44Z"/>
      <path class="cls-5" d="m848.41,199.06c-5.95,19.49-23.57,35.32-50.35,35.32-30.21,0-56.99-22.01-56.99-59.85,0-35.31,26.09-58.71,54.24-58.71,34.33,0,54.47,22.71,54.47,58.02,0,4.36-.46,8.02-.69,8.48h-81.48c.69,16.97,13.96,29.13,30.44,29.13s24.26-8.48,27.93-19.49l22.43,7.11h0Zm-25.41-36.23c-.46-13.07-9.16-24.77-27.46-24.77-16.71,0-26.32,12.84-27.24,24.77h54.7Z"/>
      <path class="cls-5" d="m973.83,199.06c-5.95,19.49-23.57,35.32-50.35,35.32-30.21,0-56.99-22.01-56.99-59.85,0-35.31,26.09-58.71,54.24-58.71,34.33,0,54.47,22.71,54.47,58.02,0,4.36-.46,8.02-.69,8.48h-81.48c.69,16.97,13.96,29.13,30.44,29.13s24.26-8.48,27.92-19.49l22.43,7.11h0Zm-25.41-36.23c-.46-13.07-9.16-24.77-27.46-24.77-16.71,0-26.32,12.84-27.24,24.77h54.7Z"/>
      <path class="cls-5" d="m1034.26,119.25h23.12v23.62h-23.12v51.82c0,9.86,4.35,13.99,14.19,13.99,3.66,0,8.01-.69,9.16-.92v22.01c-1.6.69-6.64,2.52-16.25,2.52-20.6,0-33.41-12.39-33.41-33.25v-56.18h-20.6v-23.62h5.72c11.9,0,17.17-7.57,17.17-17.43v-16.74h24.03v34.16h0Z"/>
    </g>
  </g>
</svg>